<svg width="62" height="114" viewBox="0 0 62 114" fill="none" xmlns="http://www.w3.org/2000/svg">
<path d="M1.45969 0.855328C0.969214 0.601449 0.365798 0.793247 0.111919 1.28372C-0.141959 1.77419 0.049839 2.37761 0.540312 2.63149L1.45969 0.855328ZM26.0709 23.6189L26.9037 23.0654L26.0709 23.6189ZM30.9553 47.0142L30.0222 46.6545L30.9553 47.0142ZM27.1071 51.8558L27.5149 52.7688L27.6339 52.7157L27.7352 52.6339L27.1071 51.8558ZM15.3967 50.3402L15.9291 49.4937L15.3967 50.3402ZM8.4091 41.1564L7.47088 41.5025L8.4091 41.1564ZM8.81229 29.0937L9.71772 29.5182L9.73557 29.4801L9.75016 29.4407L8.81229 29.0937ZM31.2377 35.27L31.8145 34.4531L31.2377 35.27ZM49.5453 58.8888L48.6501 59.3343L49.5453 58.8888ZM55.9222 91.325L54.9225 91.3493L55.9222 91.325ZM52.7759 110.223L53.767 110.356L52.7759 110.223ZM51.2177 112.889C51.4208 113.402 52.0018 113.654 52.5154 113.451L60.8846 110.141C61.3982 109.938 61.6499 109.357 61.4468 108.843C61.2437 108.33 60.6627 108.078 60.1491 108.281L52.7098 111.223L49.7676 103.784C49.5645 103.271 48.9835 103.019 48.4699 103.222C47.9563 103.425 47.7046 104.006 47.9078 104.52L51.2177 112.889ZM0.540312 2.63149C3.86643 4.35315 8.98655 8.14039 13.8417 12.3414C18.7027 16.5474 23.1655 21.054 25.2381 24.1724L26.9037 23.0654C24.6717 19.7071 20.0321 15.0529 15.1503 10.8289C10.2627 6.59983 4.99964 2.68768 1.45969 0.855328L0.540312 2.63149ZM25.2381 24.1724C27.1203 27.0045 28.9504 31.0509 29.985 35.2128C31.0255 39.3986 31.2221 43.5425 30.0222 46.6545L31.8883 47.3739C33.3041 43.7019 33.0072 39.0801 31.9259 34.7303C30.8387 30.3566 28.9188 26.0973 26.9037 23.0654L25.2381 24.1724ZM30.0222 46.6545C29.732 47.4073 29.4262 48.03 28.9237 48.6924C28.4134 49.3651 27.6734 50.1135 26.479 51.0776L27.7352 52.6339C29.0028 51.6107 29.8749 50.7477 30.5171 49.9011C31.1672 49.0442 31.5545 48.2398 31.8883 47.3739L30.0222 46.6545ZM26.6993 50.9427C24.6843 51.8427 22.9178 52.035 21.2252 51.7503C19.5089 51.4615 17.801 50.6711 15.9291 49.4937L14.8643 51.1867C16.841 52.4299 18.8071 53.3715 20.8933 53.7225C23.0031 54.0775 25.1675 53.8173 27.5149 52.7688L26.6993 50.9427ZM15.9291 49.4937C12.4939 47.3331 10.8307 44.8322 9.34732 40.8104L7.47088 41.5025C9.05895 45.808 10.9529 48.7266 14.8643 51.1867L15.9291 49.4937ZM9.34732 40.8104C8.0049 37.1708 8.05653 33.0614 9.71772 29.5182L7.90686 28.6692C6.00033 32.7357 5.95886 37.403 7.47088 41.5025L9.34732 40.8104ZM9.75016 29.4407C9.9806 28.8179 10.3541 28.4415 10.8465 28.2093C11.3707 27.962 12.0914 27.8518 13.0189 27.9109C14.8852 28.03 17.2665 28.8107 19.7414 29.9045C24.6631 32.0797 29.5682 35.3154 30.661 36.0869L31.8145 34.4531C30.6653 33.6417 25.6395 30.3247 20.5499 28.0752C18.0192 26.9567 15.3747 26.0571 13.1462 25.915C12.0263 25.8436 10.9323 25.9576 9.99346 26.4003C9.02284 26.858 8.28491 27.6373 7.87443 28.7467L9.75016 29.4407ZM30.661 36.0869C39.2462 42.1486 43.9948 49.9815 48.6501 59.3343L50.4406 58.4432C45.7469 49.013 40.8171 40.8095 31.8145 34.4531L30.661 36.0869ZM48.6501 59.3343C53.7214 69.5233 54.6396 79.6928 54.9225 91.3493L56.9219 91.3008C56.6377 79.5877 55.7176 69.0453 50.4406 58.4432L48.6501 59.3343ZM54.9225 91.3493C54.9988 94.4966 54.4495 97.5258 53.7545 100.614C53.0669 103.67 52.2212 106.837 51.7848 110.09L53.767 110.356C54.1879 107.219 54.9947 104.212 55.7057 101.053C56.4092 97.9274 57.0044 94.7024 56.9219 91.3008L54.9225 91.3493ZM51.7848 110.09C51.6645 110.987 51.5504 111.384 51.23 112.124L53.0652 112.919C53.4614 112.004 53.6232 111.428 53.767 110.356L51.7848 110.09Z" fill="#141F39"/>
</svg>
