<svg width="24" height="24" viewBox="0 0 24 24" fill="none" xmlns="http://www.w3.org/2000/svg">
<path d="M20.9471 8.30496C20.937 7.54758 20.7952 6.79773 20.5281 6.08896C20.2964 5.49111 19.9426 4.94816 19.4892 4.49479C19.0359 4.04142 18.4929 3.68761 17.8951 3.45596C17.1954 3.19331 16.4562 3.0513 15.7091 3.03596C14.7471 2.99296 14.4421 2.98096 12.0001 2.98096C9.55807 2.98096 9.24507 2.98096 8.29007 3.03596C7.54323 3.05141 6.80442 3.19343 6.10507 3.45596C5.50713 3.68745 4.96409 4.0412 4.5107 4.49459C4.05732 4.94798 3.70356 5.49102 3.47207 6.08896C3.2089 6.78809 3.06719 7.52707 3.05307 8.27396C3.01007 9.23696 2.99707 9.54196 2.99707 11.984C2.99707 14.426 2.99707 14.738 3.05307 15.694C3.06807 16.442 3.20907 17.18 3.47207 17.881C3.70395 18.4787 4.05797 19.0215 4.51151 19.4747C4.96505 19.9279 5.50813 20.2815 6.10607 20.513C6.8035 20.7862 7.54244 20.9383 8.29107 20.963C9.25407 21.006 9.55907 21.019 12.0011 21.019C14.4431 21.019 14.7561 21.019 15.7111 20.963C16.4582 20.9482 17.1974 20.8066 17.8971 20.544C18.4948 20.312 19.0376 19.9581 19.4909 19.5048C19.9442 19.0515 20.2982 18.5086 20.5301 17.911C20.7931 17.211 20.9341 16.473 20.9491 15.724C20.9921 14.762 21.0051 14.457 21.0051 12.014C21.0031 9.57196 21.0031 9.26196 20.9471 8.30496ZM11.9941 16.602C9.44007 16.602 7.37107 14.533 7.37107 11.979C7.37107 9.42496 9.44007 7.35596 11.9941 7.35596C13.2202 7.35596 14.396 7.84302 15.263 8.71C16.13 9.57698 16.6171 10.7529 16.6171 11.979C16.6171 13.2051 16.13 14.3809 15.263 15.2479C14.396 16.1149 13.2202 16.602 11.9941 16.602ZM16.8011 8.26296C16.2041 8.26296 15.7231 7.78096 15.7231 7.18496C15.7231 7.04346 15.7509 6.90334 15.8051 6.77262C15.8592 6.64189 15.9386 6.5231 16.0387 6.42305C16.1387 6.32299 16.2575 6.24363 16.3882 6.18948C16.519 6.13533 16.6591 6.10746 16.8006 6.10746C16.9421 6.10746 17.0822 6.13533 17.2129 6.18948C17.3436 6.24363 17.4624 6.32299 17.5625 6.42305C17.6625 6.5231 17.7419 6.64189 17.7961 6.77262C17.8502 6.90334 17.8781 7.04346 17.8781 7.18496C17.8781 7.78096 17.3961 8.26296 16.8011 8.26296Z" fill="#B4B6C4"/>
<path d="M11.994 14.9821C13.6525 14.9821 14.997 13.6376 14.997 11.9791C14.997 10.3206 13.6525 8.97607 11.994 8.97607C10.3355 8.97607 8.99097 10.3206 8.99097 11.9791C8.99097 13.6376 10.3355 14.9821 11.994 14.9821Z" fill="#B4B6C4"/>
</svg>
